<svg width="35" height="20" viewBox="0 0 35 20" fill="none" xmlns="http://www.w3.org/2000/svg">
<rect y="0.000244141" width="35" height="20" rx="6" fill="#E4E4E9"/>
<path fill-rule="evenodd" clip-rule="evenodd" d="M9.56809 6.37927C9.27509 6.74056 8.80628 7.02553 8.33748 6.98482C8.27888 6.49631 8.5084 5.97726 8.77698 5.65668C9.06999 5.28521 9.58274 5.0206 9.99783 5.00024C10.0467 5.50911 9.85621 6.0078 9.56809 6.37927ZM9.99283 7.08149C9.57982 7.05672 9.20297 7.21091 8.89857 7.33546C8.70269 7.41562 8.53681 7.48349 8.41061 7.48349C8.26899 7.48349 8.09627 7.41199 7.90234 7.33171C7.64822 7.22651 7.3577 7.10625 7.05304 7.11202C6.35471 7.12219 5.70522 7.53437 5.34874 8.19081C4.61623 9.50368 5.15829 11.4475 5.86638 12.5162C6.2131 13.0454 6.62818 13.6255 7.17512 13.6051C7.41574 13.5957 7.58883 13.5191 7.76796 13.4399C7.97418 13.3487 8.18842 13.254 8.52293 13.254C8.84585 13.254 9.05071 13.3463 9.24737 13.4348C9.43436 13.519 9.61393 13.5999 9.88051 13.595C10.447 13.5848 10.8035 13.0657 11.1502 12.5365C11.5244 11.9685 11.6888 11.4142 11.7137 11.3301L11.7167 11.3203C11.7167 11.3203 11.7114 11.3175 11.7033 11.3136C11.5782 11.2539 10.6222 10.7979 10.613 9.57492C10.6038 8.54843 11.3713 8.02834 11.4921 7.94647C11.4995 7.94149 11.5044 7.93813 11.5067 7.93638C11.0183 7.18326 10.2565 7.10184 9.99283 7.08149ZM13.9143 13.539V5.60578H16.771C18.2458 5.60578 19.2762 6.66422 19.2762 8.21116C19.2762 9.75811 18.2263 10.8267 16.732 10.8267H15.096V13.539H13.9143ZM15.0958 6.64388H16.4583C17.4838 6.64388 18.0698 7.21381 18.0698 8.21627C18.0698 9.21874 17.4838 9.79375 16.4534 9.79375H15.0958V6.64388ZM23.1779 12.5874C22.8654 13.2082 22.1768 13.6 21.4345 13.6C20.3358 13.6 19.5691 12.9182 19.5691 11.8903C19.5691 10.8725 20.3114 10.2873 21.6836 10.2008L23.1584 10.1092V9.67162C23.1584 9.02536 22.7531 8.67424 22.0303 8.67424C21.4345 8.67424 20.9999 8.99483 20.912 9.48334H19.8475C19.8816 8.45543 20.8095 7.7074 22.0645 7.7074C23.4172 7.7074 24.2962 8.44525 24.2962 9.5902V13.539H23.2023V12.5874H23.1779ZM21.752 12.6586C21.1221 12.6586 20.7216 12.3432 20.7216 11.8597C20.7216 11.361 21.1074 11.071 21.8448 11.0252L23.1584 10.9387V11.3865C23.1584 12.1294 22.5529 12.6586 21.752 12.6586ZM27.9246 13.8494C27.4509 15.2386 26.9088 15.6966 25.7563 15.6966C25.6684 15.6966 25.3754 15.6864 25.3071 15.666V14.7145C25.3803 14.7246 25.561 14.7348 25.6538 14.7348C26.1763 14.7348 26.4693 14.5058 26.65 13.9105L26.7574 13.5593L24.7553 7.78373H25.9907L27.3825 12.4704H27.4069L28.7987 7.78373H30L27.9246 13.8494Z" fill="#8B8D98"/>
</svg>
