<svg width="19" height="14" viewBox="0 0 19 14" fill="none" xmlns="http://www.w3.org/2000/svg">
<path d="M17 0.750244H2C1.66848 0.750244 1.35054 0.88194 1.11612 1.11636C0.881696 1.35078 0.75 1.66872 0.75 2.00024V12.0002C0.75 12.3318 0.881696 12.6497 1.11612 12.8841C1.35054 13.1185 1.66848 13.2502 2 13.2502H17C17.3315 13.2502 17.6495 13.1185 17.8839 12.8841C18.1183 12.6497 18.25 12.3318 18.25 12.0002V2.00024C18.25 1.66872 18.1183 1.35078 17.8839 1.11636C17.6495 0.88194 17.3315 0.750244 17 0.750244ZM17 2.00024V3.87524H2V2.00024H17ZM17 12.0002H2V5.12524H17V12.0002ZM15.75 10.1252C15.75 10.291 15.6842 10.45 15.5669 10.5672C15.4497 10.6844 15.2908 10.7502 15.125 10.7502H12.625C12.4592 10.7502 12.3003 10.6844 12.1831 10.5672C12.0658 10.45 12 10.291 12 10.1252C12 9.95948 12.0658 9.80051 12.1831 9.6833C12.3003 9.56609 12.4592 9.50024 12.625 9.50024H15.125C15.2908 9.50024 15.4497 9.56609 15.5669 9.6833C15.6842 9.80051 15.75 9.95948 15.75 10.1252ZM10.75 10.1252C10.75 10.291 10.6842 10.45 10.5669 10.5672C10.4497 10.6844 10.2908 10.7502 10.125 10.7502H8.875C8.70924 10.7502 8.55027 10.6844 8.43306 10.5672C8.31585 10.45 8.25 10.291 8.25 10.1252C8.25 9.95948 8.31585 9.80051 8.43306 9.6833C8.55027 9.56609 8.70924 9.50024 8.875 9.50024H10.125C10.2908 9.50024 10.4497 9.56609 10.5669 9.6833C10.6842 9.80051 10.75 9.95948 10.75 10.1252Z" fill="#60646C"/>
</svg>
