<svg width="15" height="14" viewBox="0 0 15 14" fill="none" xmlns="http://www.w3.org/2000/svg">
<path d="M7.09944 10.4787V3.57691C9.00994 4.06601 10.2108 5.96807 9.71955 7.87012C9.39203 9.17439 8.40949 10.1526 7.09944 10.4787Z" fill="#0079BE"/>
<path d="M2.89625 6.1311C2.40498 8.03316 3.55127 9.98956 5.46177 10.4787V3.57691C4.2063 3.90298 3.22376 4.88118 2.89625 6.1311Z" fill="#0079BE"/>
<path fill-rule="evenodd" clip-rule="evenodd" d="M6.11687 13.2502H8.35488C11.8483 13.2502 14.6322 10.4787 14.7414 7.05497V7.00063C14.6868 3.52258 11.8483 0.696671 8.35488 0.751015H5.84394C2.51423 0.859704 -0.10588 3.68562 0.00329147 7.05497C0.00329147 10.4243 2.73257 13.1959 6.11687 13.2502ZM1.09505 7.0006C1.09505 4.17469 3.44223 1.83788 6.28068 1.83788C9.11912 1.83788 11.4663 4.17469 11.4663 7.0006C11.4663 9.82652 9.11912 12.1633 6.28068 12.1633C3.44223 12.1633 1.09505 9.82652 1.09505 7.0006Z" fill="#0079BE"/>
</svg>
