<svg width="144" height="105" viewBox="0 0 144 105" fill="none" xmlns="http://www.w3.org/2000/svg">
<path d="M98.7649 66.2215L101.743 65.6963L103.166 71.5876L99.443 72.2441L98.7649 66.2215Z" fill="black"/>
<rect x="66.3073" y="78.0867" width="71.0741" height="27.2199" rx="10.7143" transform="rotate(-10 66.3073 78.0867)" fill="black"/>
<path d="M94.686 73.0829L101.305 71.9159L98.3257 76.1701C97.4132 77.4732 95.3806 77.0226 95.1044 75.4559L94.686 73.0829Z" fill="white"/>
<path d="M107.923 70.7489L101.305 71.9159L105.559 74.8947C106.862 75.8072 108.618 74.6886 108.342 73.1219L107.923 70.7489Z" fill="white"/>
<path d="M123.356 86.4227C123.564 86.3861 123.763 86.3295 123.951 86.2535C124.144 86.1767 124.333 86.089 124.517 85.9922L124.767 87.4111C124.578 87.5383 124.339 87.658 124.044 87.7711C123.755 87.8864 123.432 87.9762 123.074 88.0393C122.659 88.1126 122.271 88.1117 121.915 88.0375C121.562 87.958 121.261 87.7685 121.011 87.4696C120.764 87.1651 120.587 86.713 120.482 86.1132L119.887 82.7428L119.007 83.0762L118.754 81.6446L119.637 81.3223L119.373 79.8251L121.218 79.1535L121.482 80.6523L123.376 79.9621L123.628 81.3938L121.734 82.084L122.385 85.7759C122.432 86.043 122.543 86.2297 122.716 86.336C122.893 86.4385 123.107 86.4667 123.356 86.4227Z" fill="white" stroke="white" stroke-width="0.892857" stroke-linejoin="round"/>
<ellipse cx="73.8025" cy="44.1349" rx="12.0977" ry="15.1222" transform="rotate(-10 73.8025 44.1349)" fill="black"/>
<path d="M119.186 28.4548C116.648 14.0613 104.414 4.18763 91.8592 6.40132C79.3048 8.615 71.1849 22.0778 73.7228 36.4713" stroke="black" stroke-width="3.57143"/>
<circle cx="95.7243" cy="40.2695" r="26.4638" transform="rotate(-10 95.7243 40.2695)" fill="#08E8DE"/>
<ellipse cx="121.786" cy="35.6742" rx="12.0977" ry="15.1222" transform="rotate(-10 121.786 35.6742)" fill="black"/>
<path d="M102.391 49.3146C101.238 46.9508 98.3869 45.9692 96.0231 47.1221C93.6593 48.275 92.6777 51.1258 93.8306 53.4896C94.9835 55.8533 97.8343 56.8349 100.198 55.6821C102.562 54.5292 103.543 51.6784 102.391 49.3146ZM115.301 42.0243L97.7192 50.5996L98.502 52.2046L116.084 43.6293L115.301 42.0243Z" fill="black"/>
<path d="M81.1893 30.8034C81.1893 30.8034 81.4672 44.4562 89.384 43.0602C97.3008 41.6643 93.2368 28.6791 93.2368 28.6791" stroke="black" stroke-width="3.57143"/>
<circle cx="42.4787" cy="37.1229" r="11.5512" transform="rotate(37.6789 42.4787 37.1229)" fill="#FF7DF3"/>
<path d="M29.5414 28.1405C29.2217 27.4779 29.7957 26.7346 30.5177 26.8765L36.0068 27.9548L31.9723 33.1788L29.5414 28.1405Z" fill="#FF7DF3"/>
<path d="M1.92384 73.0059L15.1653 59.4847L60.5372 55.5152C64.4671 55.1714 67.9316 58.0785 68.2754 62.0083L70.1789 83.7653C70.5228 87.6952 67.6157 91.1597 63.6858 91.5035L11.1147 96.1029C7.18483 96.4467 3.72031 93.5397 3.37649 89.6098L1.92384 73.0059Z" fill="#FFF000"/>
<path d="M13.1192 59.6637L13.57 64.8168C13.9139 68.7467 11.0068 72.2112 7.07691 72.555L1.92384 73.0059L13.1192 59.6637Z" fill="#FFAA1D"/>
<path d="M73.3617 66.0659C74.046 66.3363 74.1278 67.2718 73.5009 67.657L68.7653 70.5664L68.1929 64.023L73.3617 66.0659Z" fill="#FFF000"/>
</svg>
