<svg width="35" height="20" viewBox="0 0 35 20" fill="none" xmlns="http://www.w3.org/2000/svg">
<rect y="0.000244141" width="35" height="20" rx="6" fill="#E4E4E9"/>
<path d="M10.8396 7.33757C10.4059 6.91535 9.82557 6.68343 9.22184 6.69533C8.11987 6.69533 7.18789 7.45056 6.85378 8.46746L6.85241 8.46637C6.67813 9.00021 6.67844 9.57516 6.85378 10.1028C7.18789 11.1138 8.11987 11.869 9.22184 11.869C9.7904 11.869 10.2767 11.7203 10.6577 11.4587C11.1032 11.1613 11.408 10.6856 11.5018 10.1563H9.22167V8.50908H13.2016C13.2485 8.79452 13.272 9.08591 13.272 9.3773C13.272 10.6856 12.8148 11.7857 12.0176 12.5291C11.3201 13.1832 10.359 13.5638 9.22184 13.5638C7.6275 13.5638 6.16798 12.654 5.45288 11.2089V11.203C4.84904 9.99577 4.84904 8.56855 5.45287 7.36136C6.16798 5.9163 7.6275 5.0005 9.22184 5.0005C10.271 4.98861 11.2792 5.38704 12.0471 6.11254L10.8396 7.33757Z" fill="#8B8D98"/>
<path fill-rule="evenodd" clip-rule="evenodd" d="M16.53 13.0524V10.0314H18.0892C18.7281 10.0314 19.2674 9.81734 19.707 9.39512L19.8125 9.28808C20.6155 8.41391 20.5628 7.05211 19.707 6.24335C19.2791 5.81519 18.6929 5.58326 18.0892 5.59516H15.5863V13.0524H16.53ZM16.53 9.11558V6.51091H18.1129C18.4529 6.51091 18.7754 6.64174 19.0157 6.87961C19.5258 7.37913 19.5375 8.21168 19.045 8.72904C18.8047 8.98475 18.4647 9.12748 18.1129 9.11558H16.53Z" fill="#8B8D98"/>
<path fill-rule="evenodd" clip-rule="evenodd" d="M24.2146 8.34847C23.8101 7.97382 23.2592 7.78353 22.5616 7.78353C21.6648 7.78353 20.9908 8.11655 20.5453 8.77664L21.3776 9.3059C21.6824 8.85394 22.0986 8.62797 22.6261 8.62797C22.9602 8.62797 23.2826 8.75285 23.5347 8.97882C23.7808 9.19291 23.9215 9.50214 23.9215 9.82921V10.0492C23.5581 9.84705 23.1009 9.74001 22.5382 9.74001C21.8817 9.74001 21.3542 9.89462 20.9614 10.2098C20.5687 10.525 20.3694 10.9412 20.3694 11.4705C20.3577 11.9522 20.5629 12.4101 20.9263 12.7193C21.2956 13.0523 21.7645 13.2189 22.3155 13.2189C22.9661 13.2189 23.4819 12.9275 23.8746 12.3447H23.9157V13.0523H24.8183V9.90652C24.8183 9.24643 24.619 8.72311 24.2146 8.34847ZM21.6533 12.1128C21.4598 11.9701 21.3426 11.7381 21.3426 11.4884C21.3426 11.2089 21.4716 10.9769 21.7236 10.7926C21.9816 10.6083 22.304 10.5131 22.6851 10.5131C23.2127 10.5072 23.6231 10.6261 23.9162 10.864C23.9162 11.2683 23.7579 11.6192 23.4472 11.9165C23.1658 12.202 22.7847 12.3625 22.3861 12.3625C22.1223 12.3685 21.8643 12.2793 21.6533 12.1128Z" fill="#8B8D98"/>
<path d="M30 7.95003L26.8465 15.2943H25.8735L27.0458 12.7253L24.9767 7.95003H26.0024L27.4971 11.6132H27.5147L28.9742 7.95003H30Z" fill="#8B8D98"/>
</svg>
