<svg width="127" height="32" viewBox="0 0 127 32" fill="none" xmlns="http://www.w3.org/2000/svg">
<path d="M12.232 26.0569C12.8462 26.0569 13.4463 25.9955 14.0227 25.8726C14.6133 25.7498 15.1992 25.5938 15.7756 25.4096V29.6005C15.1708 29.8698 14.4243 30.0919 13.5219 30.2667C12.6336 30.451 11.665 30.5455 10.6066 30.5455C9.37813 30.5455 8.26779 30.347 7.28503 29.9549C6.31171 29.5485 5.54628 28.854 4.9793 27.8712C4.42649 26.8743 4.14772 25.4899 4.14772 23.7181V13.7628L1.45456 14.2731V10.0444L4.14772 9.56715V5.14468L9.77502 4.15247V8.57965L15.5536 7.55908V11.7878L9.77502 12.8084V23.7134C9.77502 24.5024 9.99709 25.093 10.4412 25.4852C10.8948 25.8679 11.4949 26.0569 12.232 26.0569Z" fill="black" stroke="black" stroke-width="0.472485" stroke-linejoin="round"/>
<path d="M100.717 26.0569C101.331 26.0569 101.931 25.9955 102.508 25.8726C103.098 25.7498 103.684 25.5938 104.261 25.4096V29.6005C103.656 29.8698 102.909 30.0919 102.007 30.2667C101.119 30.451 100.15 30.5455 99.0916 30.5455C97.8631 30.5455 96.7528 30.347 95.77 29.9549C94.7967 29.5485 94.0313 28.854 93.4643 27.8712C92.9115 26.8743 92.6327 25.4899 92.6327 23.7181V13.7628L89.9396 14.2731V10.0444L92.6327 9.56715V5.14468L98.26 4.15247V8.57965L104.039 7.55908V11.7878L98.26 12.8084V23.7134C98.26 24.5024 98.4821 25.093 98.9262 25.4852C99.3798 25.8679 99.9799 26.0569 100.717 26.0569Z" fill="black" stroke="black" stroke-width="0.472485" stroke-linejoin="round"/>
<path d="M24.4754 14.2638V30.1723H18.8481V15.2088L24.4754 14.2638Z" fill="black" stroke="black" stroke-width="0.472485" stroke-linejoin="round"/>
<path d="M21.6617 12.2154C23.354 12.2154 24.7258 10.8435 24.7258 9.15127C24.7258 7.45901 23.354 6.08716 21.6617 6.08716C19.9694 6.08716 18.5976 7.45901 18.5976 9.15127C18.5976 10.8435 19.9694 12.2154 21.6617 12.2154Z" fill="black" stroke="black" stroke-width="0.472485" stroke-linejoin="round"/>
<path d="M37.9931 30.5408C35.952 30.5408 34.2085 30.1722 32.7722 29.4352C31.3311 28.6839 30.2397 27.5263 29.4884 25.9671C28.7372 24.4032 28.3639 22.4046 28.3639 19.9666C28.3639 17.5285 28.7891 15.3882 29.6396 13.8006C30.4995 12.1989 31.6902 11.0271 33.2021 10.2759C34.7283 9.52463 36.4954 9.15137 38.4987 9.15137C39.9256 9.15137 41.1541 9.29311 42.1888 9.5766C43.233 9.84592 44.1449 10.1719 44.9198 10.5546L43.2566 14.911C42.3684 14.5519 41.5462 14.2637 40.7855 14.0416C40.0248 13.8101 39.2594 13.6919 38.4987 13.6919C37.5159 13.6919 36.6938 13.9235 36.0418 14.3912C35.3897 14.8448 34.9031 15.5346 34.5818 16.4607C34.2605 17.3821 34.0999 18.5396 34.0999 19.9288C34.0999 21.3179 34.27 22.4282 34.6149 23.3259C34.9598 24.2236 35.4559 24.8946 36.1079 25.3387C36.76 25.7687 37.5537 25.986 38.4892 25.986C39.6563 25.986 40.6958 25.8301 41.6077 25.523C42.5195 25.2017 43.4031 24.7623 44.263 24.1953V29.0146C43.4031 29.558 42.4959 29.9454 41.551 30.177C40.6154 30.4226 39.4295 30.5455 37.9884 30.5455L37.9931 30.5408Z" fill="black" stroke="black" stroke-width="0.472485" stroke-linejoin="round"/>
<path d="M53.7529 1.45459V14.3015C53.7529 15.0763 53.7198 15.8512 53.6584 16.6261C53.597 17.401 53.5308 18.1758 53.4552 18.9507H53.5308C53.9136 18.4074 54.301 17.8734 54.6932 17.3443C55.0995 16.8151 55.5295 16.3048 55.983 15.8134L61.7615 9.53881H68.1117L59.9188 18.4924L68.6126 30.177H62.1159L56.172 21.814L53.7529 23.7512V30.1722H48.1256V2.47303L53.7529 1.45459Z" fill="black" stroke="black" stroke-width="0.472485" stroke-linejoin="round"/>
<path d="M77.3313 9.26947C79.2112 8.93803 80.8897 9.01622 82.3765 9.50253C83.8616 9.9795 85.0923 10.8372 86.0733 12.0747C87.0544 13.3123 87.7173 14.9226 88.0653 16.8955L88.5394 19.585L75.4364 21.8955C75.7725 23.4482 76.4544 24.5945 77.4876 25.3383C78.5276 26.0666 79.8293 26.2928 81.3927 26.0171C82.6909 25.7881 83.8536 25.4441 84.8864 24.9885C85.9191 24.5329 86.956 23.9374 88.0016 23.2014L88.7582 27.4915C87.8408 28.1666 86.8486 28.7158 85.786 29.1382C84.7374 29.5582 83.4271 29.9092 81.8684 30.184C79.8303 30.5434 77.9584 30.4849 76.2536 30.013C74.5581 29.5396 73.127 28.6069 71.9582 27.2297C70.8025 25.8454 70.0193 23.9876 69.6066 21.6472C69.1938 19.3067 69.2396 17.226 69.7626 15.5122C70.2971 13.7818 71.214 12.3967 72.5168 11.3514C73.8182 10.2968 75.4275 9.60033 77.3398 9.26321L77.3313 9.26947ZM78.0643 13.2087C76.9848 13.399 76.1521 13.9009 75.5579 14.7205C74.9766 15.5331 74.7637 16.6933 74.9122 18.188L82.6922 16.8162C82.5329 15.9951 82.2544 15.2861 81.8481 14.6957C81.4557 14.1028 80.9428 13.6703 80.3087 13.3934C79.6838 13.115 78.9391 13.0544 78.0643 13.2087Z" fill="black" stroke="black" stroke-width="0.472485" stroke-linejoin="round"/>
<path d="M113.875 9.26911C115.754 8.93766 117.433 9.01586 118.92 9.50216C120.405 9.97914 121.635 10.8368 122.617 12.0744C123.597 13.3119 124.261 14.9223 124.608 16.8951L125.083 19.5846L111.98 21.8951C112.316 23.4478 112.998 24.5942 114.031 25.338C115.071 26.0662 116.373 26.2924 117.936 26.0167C119.234 25.7879 120.397 25.4437 121.43 24.9881C122.462 24.5325 123.499 23.9371 124.545 23.201L125.302 27.4911C124.384 28.1663 123.392 28.7154 122.33 29.1378C121.281 29.5579 119.971 29.9088 118.407 30.1845C116.369 30.5438 114.502 30.4845 112.792 30.0135C111.097 29.54 109.666 28.6073 108.497 27.2302C107.341 25.8459 106.558 23.9881 106.145 21.6476C105.732 19.3072 105.778 17.2265 106.301 15.5126C106.831 13.7831 107.753 12.3972 109.056 11.3518C110.357 10.2972 111.966 9.60079 113.878 9.26367L113.875 9.26911ZM114.608 13.2083C113.528 13.3987 112.691 13.9014 112.101 14.7202C111.52 15.5327 111.307 16.6929 111.456 18.1876L119.235 16.8159C119.077 15.9947 118.798 15.2857 118.392 14.6954C117.998 14.1025 117.486 13.67 116.852 13.3931C116.227 13.1147 115.478 13.0549 114.608 13.2083Z" fill="black" stroke="black" stroke-width="0.472485" stroke-linejoin="round"/>
</svg>
