<svg width="19" height="12" viewBox="0 0 19 12" fill="none" xmlns="http://www.w3.org/2000/svg">
<path d="M9.51036 10.2815C8.51628 11.1194 7.2268 11.6252 5.81774 11.6252C2.67373 11.6252 0.125 9.10685 0.125 6.00024C0.125 2.89364 2.67373 0.375244 5.81774 0.375244C7.2268 0.375244 8.51628 0.881081 9.51036 1.719C10.5044 0.881081 11.7939 0.375244 13.203 0.375244C16.347 0.375244 18.8957 2.89364 18.8957 6.00024C18.8957 9.10685 16.347 11.6252 13.203 11.6252C11.7939 11.6252 10.5044 11.1194 9.51036 10.2815Z" fill="#ED0006"/>
<path d="M9.51038 10.2815C10.7344 9.24973 11.5105 7.71455 11.5105 6.00024C11.5105 4.28594 10.7344 2.75075 9.51038 1.71903C10.5045 0.881091 11.794 0.375244 13.203 0.375244C16.347 0.375244 18.8958 2.89364 18.8958 6.00024C18.8958 9.10685 16.347 11.6252 13.203 11.6252C11.794 11.6252 10.5045 11.1194 9.51038 10.2815Z" fill="#F9A000"/>
<path d="M9.51035 10.2815C10.7343 9.24978 11.5105 7.71458 11.5105 6.00027C11.5105 4.28595 10.7343 2.75075 9.51035 1.71902C8.28635 2.75075 7.51022 4.28595 7.51022 6.00027C7.51022 7.71458 8.28635 9.24978 9.51035 10.2815Z" fill="#FF5E00"/>
</svg>
