<svg width="14" height="12" viewBox="0 0 14 12" fill="none" xmlns="http://www.w3.org/2000/svg">
<path d="M12.3594 3.81712C12.3375 3.76244 12.3145 3.70775 12.291 3.65306C11.9382 2.83933 11.3672 2.13904 10.6411 1.62962H11.8125C11.9285 1.62962 12.0398 1.58353 12.1219 1.50148C12.2039 1.41944 12.25 1.30816 12.25 1.19212C12.25 1.07609 12.2039 0.964811 12.1219 0.882764C12.0398 0.800717 11.9285 0.754623 11.8125 0.754623H6.125C4.91537 0.756159 3.75055 1.21255 2.86184 2.03318C1.97314 2.8538 1.42555 3.97863 1.32781 5.18431C0.949901 5.27825 0.614119 5.49556 0.373618 5.80183C0.133118 6.1081 0.00164146 6.48584 0 6.87525C0 6.99128 0.0460936 7.10256 0.128141 7.18461C0.210188 7.26665 0.321468 7.31275 0.4375 7.31275C0.553532 7.31275 0.664812 7.26665 0.746859 7.18461C0.828906 7.10256 0.875 6.99128 0.875 6.87525C0.875102 6.71571 0.91882 6.55924 1.00142 6.42275C1.08403 6.28626 1.20238 6.17496 1.34367 6.10087C1.45257 7.08244 1.86186 8.00644 2.51562 8.74665L3.2025 10.6695C3.26322 10.8395 3.37508 10.9867 3.52274 11.0906C3.67039 11.1946 3.8466 11.2504 4.02719 11.2502H4.72281C4.90331 11.2503 5.0794 11.1945 5.22694 11.0905C5.37448 10.9865 5.48626 10.8395 5.54695 10.6695L5.65195 10.3752H8.78555L8.89055 10.6695C8.95124 10.8395 9.06302 10.9865 9.21056 11.0905C9.3581 11.1945 9.53419 11.2503 9.71469 11.2502H10.4103C10.5908 11.2503 10.7669 11.1945 10.9144 11.0905C11.062 10.9865 11.1738 10.8395 11.2345 10.6695L12.1209 8.18775H12.25C12.5981 8.18775 12.9319 8.04947 13.1781 7.80333C13.4242 7.55718 13.5625 7.22334 13.5625 6.87525V5.12525C13.5625 4.79605 13.4389 4.47886 13.216 4.23656C12.9932 3.99426 12.6874 3.84456 12.3594 3.81712ZM8.3125 2.93775H6.125C6.00897 2.93775 5.89769 2.89165 5.81564 2.80961C5.73359 2.72756 5.6875 2.61628 5.6875 2.50025C5.6875 2.38422 5.73359 2.27294 5.81564 2.19089C5.89769 2.10884 6.00897 2.06275 6.125 2.06275H8.3125C8.42853 2.06275 8.53981 2.10884 8.62186 2.19089C8.70391 2.27294 8.75 2.38422 8.75 2.50025C8.75 2.61628 8.70391 2.72756 8.62186 2.80961C8.53981 2.89165 8.42853 2.93775 8.3125 2.93775ZM9.84375 6.00025C9.71396 6.00025 9.58708 5.96176 9.47916 5.88965C9.37124 5.81754 9.28712 5.71505 9.23745 5.59513C9.18778 5.47522 9.17479 5.34327 9.20011 5.21597C9.22543 5.08867 9.28793 4.97174 9.37971 4.87996C9.47149 4.78818 9.58842 4.72568 9.71572 4.70036C9.84302 4.67504 9.97497 4.68803 10.0949 4.7377C10.2148 4.78737 10.3173 4.87149 10.3894 4.97941C10.4615 5.08733 10.5 5.2142 10.5 5.344C10.5 5.51805 10.4309 5.68497 10.3078 5.80804C10.1847 5.93111 10.0178 6.00025 9.84375 6.00025Z" fill="#E9F9EE"/>
</svg>
