<svg width="27" height="10" viewBox="0 0 27 10" fill="none" xmlns="http://www.w3.org/2000/svg">
<path d="M17.5513 0.625244C18.3739 0.625244 19.0391 0.814472 19.4585 0.985855L19.1693 2.8149L18.977 2.72496C18.5922 2.55369 18.0843 2.38255 17.393 2.40063C16.5535 2.40063 16.1769 2.76987 16.1682 3.13036C16.1682 3.5269 16.6237 3.78823 17.3674 4.17578C18.5926 4.77952 19.1608 5.51835 19.1524 6.48257C19.1351 8.23976 17.6826 9.37524 15.4513 9.37524C14.4974 9.36614 13.5785 9.15847 13.0798 8.92445L13.3774 7.02307L13.6574 7.1584C14.3487 7.4741 14.8035 7.60896 15.6525 7.60896C16.2647 7.60896 16.9211 7.34739 16.9295 6.77995C16.9295 6.41047 16.6499 6.13992 15.8272 5.72542C15.0223 5.31978 13.9461 4.64406 13.9635 3.4275C13.9726 1.77858 15.4514 0.625244 17.5513 0.625244Z" fill="#00579F"/>
<path d="M9.62357 9.24901H11.75L13.0799 0.778786H10.9536L9.62357 9.24901Z" fill="#00579F"/>
<path fill-rule="evenodd" clip-rule="evenodd" d="M24.9095 0.778786H23.2647C22.7575 0.778786 22.3722 0.931845 22.1533 1.48156L18.9948 9.24889H21.226C21.226 9.24889 21.5933 8.20347 21.6723 7.97831H24.4024C24.4635 8.27568 24.6561 9.24889 24.6561 9.24889H26.625L24.9095 0.778786ZM22.2847 6.24831C22.4598 5.76171 23.1337 3.87841 23.1337 3.87841C23.1301 3.88571 23.1579 3.80627 23.1993 3.68819C23.2603 3.51392 23.3509 3.25544 23.4134 3.06748L23.5621 3.79733C23.5621 3.79733 23.9647 5.82482 24.0522 6.24831H22.2847Z" fill="#00579F"/>
<path d="M5.76497 6.55468L7.84745 0.778786H10.096L6.7536 9.24004H4.50495L2.59747 1.83283C3.94494 2.56304 5.1524 4.03159 5.53741 5.38326L5.76497 6.55468Z" fill="#00579F"/>
<path d="M3.83123 0.778778H0.41L0.375 0.949922C3.04377 1.65282 4.81124 3.34713 5.53742 5.38361L4.79369 1.49078C4.67124 0.949802 4.29496 0.796623 3.83123 0.778778Z" fill="#FAA61A"/>
</svg>
